ffmpeg started on 2016-12-02 at 08:17:23
Report written to "Output/x264/results/ffmpeg/old_town_cross_2160p50slower11000k.log"
Command line:
Tools/ffmpeg/ffmpeg -benchmark -y -i Input/y4m/old_town_cross_2160p50.y4m -c:v libx264 -preset slower -b:v 11000k -an Output/x264/encoded/old_town_cross_2160p50slower11000k.mkv
ffmpeg version N-82227-gdb23fde Copyright (c) 2000-2016 the FFmpeg developers
  built with gcc 5.4.0 (Ubuntu 5.4.0-6ubuntu1~16.04.2) 20160609
  configuration: --prefix=/home/jaroslav/ffmpeg_build --pkg-config-flags=--static --extra-cflags=-I/home/jaroslav/ffmpeg_build/include --extra-ldflags=-L/home/jaroslav/ffmpeg_build/lib --bindir=/home/jaroslav/bin --enable-gpl --enable-libass --enable-libfdk-aac --enable-libfreetype --enable-libmp3lame --enable-libopus --enable-libtheora --enable-libvorbis --enable-libvpx --enable-libx264 --enable-libx265 --enable-nvenc --enable-libmfx --enable-libxvid --enable-libgsm --enable-libopencore-amrnb --enable-version3 --enable-nonfree
  libavutil      55. 35.100 / 55. 35.100
  libavcodec     57. 66.101 / 57. 66.101
  libavformat    57. 57.100 / 57. 57.100
  libavdevice    57.  2.100 / 57.  2.100
  libavfilter     6. 66.100 /  6. 66.100
  libswscale      4.  3.100 /  4.  3.100
  libswresample   2.  4.100 /  2.  4.100
  libpostproc    54.  2.100 / 54.  2.100
Input #0, yuv4mpegpipe, from 'Input/y4m/old_town_cross_2160p50.y4m':
  Duration: 00:00:10.00, start: 0.000000, bitrate: 4976642 kb/s
    Stream #0:0: Video: rawvideo (I420 / 0x30323449), yuv420p(progressive), 3840x2160, SAR 1:1 DAR 16:9, 50 fps, 50 tbr, 50 tbn, 50 tbc
[libx264 @ 0x4509120] using SAR=1/1
[libx264 @ 0x4509120] DPB size (8 frames, 259200 mbs) > level limit (5 frames, 184320 mbs)
[libx264 @ 0x4509120] using cpu capabilities: MMX2 SSE2Fast SSSE3 SSE4.2 AVX FMA3 AVX2 LZCNT BMI2
[libx264 @ 0x4509120] profile High, level 5.2
[libx264 @ 0x4509120] 264 - core 148 - H.264/MPEG-4 AVC codec - Copyleft 2003-2016 - http://www.videolan.org/x264.html - options: cabac=1 ref=8 deblock=1:0:0 analyse=0x3:0x133 me=umh subme=9 psy=1 psy_rd=1.00:0.00 mixed_ref=1 me_range=16 chroma_me=1 trellis=2 8x8dct=1 cqm=0 deadzone=21,11 fast_pskip=1 chroma_qp_offset=-2 threads=6 lookahead_threads=1 sliced_threads=0 nr=0 decimate=1 interlaced=0 bluray_compat=0 constrained_intra=0 bframes=3 b_pyramid=2 b_adapt=2 b_bias=0 direct=3 weightb=1 open_gop=0 weightp=2 keyint=250 keyint_min=25 scenecut=40 intra_refresh=0 rc_lookahead=60 rc=abr mbtree=1 bitrate=11000 ratetol=1.0 qcomp=0.60 qpmin=0 qpmax=69 qpstep=4 ip_ratio=1.40 aq=1:1.00
Output #0, matroska, to 'Output/x264/encoded/old_town_cross_2160p50slower11000k.mkv':
  Metadata:
    encoder         : Lavf57.57.100
    Stream #0:0: Video: h264 (libx264) (H264 / 0x34363248), yuv420p, 3840x2160 [SAR 1:1 DAR 16:9], q=-1--1, 11000 kb/s, 50 fps, 1k tbn, 50 tbc
    Metadata:
      encoder         : Lavc57.66.101 libx264
    Side data:
      cpb: bitrate max/min/avg: 0/0/11000000 buffer size: 0 vbv_delay: -1
Stream mapping:
  Stream #0:0 -> #0:0 (rawvideo (native) -> h264 (libx264))
Press [q] to stop, [?] for help
frame=   62 fps=0.0 q=0.0 size=       0kB time=00:00:00.00 bitrate=N/A speed=   0x    frame=   67 fps= 17 q=0.0 size=       0kB time=00:00:00.00 bitrate=N/A speed=   0x    frame=   72 fps= 13 q=33.0 size=       1kB time=-00:00:00.01 bitrate=N/A speed=N/A    frame=   74 fps= 12 q=41.0 size=       1kB time=00:00:00.02 bitrate= 280.4kbits/s speed=0.00327x    frame=   77 fps= 11 q=49.0 size=       1kB time=00:00:00.08 bitrate=  72.7kbits/s speed=0.0116x    frame=   78 fps= 10 q=45.0 size=       1kB time=00:00:00.10 bitrate=  58.3kbits/s speed=0.0134x    frame=   82 fps= 10 q=47.0 size=       1kB time=00:00:00.18 bitrate=  32.5kbits/s speed=0.0225x    frame=   85 fps=9.8 q=43.0 size=       1kB time=00:00:00.24 bitrate=  24.4kbits/s speed=0.0278x    frame=   88 fps=9.6 q=43.0 size=       1kB time=00:00:00.30 bitrate=  19.6kbits/s speed=0.0328x    frame=   92 fps=9.4 q=42.0 size=       1kB time=00:00:00.38 bitrate=  15.5kbits/s speed=0.0389x    frame=   96 fps=9.0 q=40.0 size=       1kB time=00:00:00.46 bitrate=  12.8kbits/s speed=0.0432x    frame=  100 fps=8.8 q=39.0 size=       1kB time=00:00:00.54 bitrate=  10.9kbits/s speed=0.0477x    frame=  103 fps=8.4 q=39.0 size=       1kB time=00:00:00.60 bitrate=   9.8kbits/s speed=0.049x    frame=  107 fps=8.4 q=38.0 size=       1kB time=00:00:00.68 bitrate=   8.6kbits/s speed=0.0532x    frame=  109 fps=8.1 q=38.0 size=       1kB time=00:00:00.72 bitrate=   8.2kbits/s speed=0.0538x    frame=  111 fps=7.9 q=37.0 size=       1kB time=00:00:00.76 bitrate=   7.7kbits/s speed=0.0541x    frame=  115 fps=7.8 q=37.0 size=       1kB time=00:00:00.84 bitrate=   7.0kbits/s speed=0.0573x    frame=  118 fps=7.4 q=37.0 size=       1kB time=00:00:00.90 bitrate=   6.5kbits/s speed=0.0563x    frame=  122 fps=7.4 q=36.0 size=       1kB time=00:00:00.98 bitrate=   6.0kbits/s speed=0.0592x    frame=  124 fps=7.1 q=36.0 size=       1kB time=00:00:01.02 bitrate=   5.8kbits/s speed=0.0581x    frame=  127 fps=7.0 q=36.0 size=       1kB time=00:00:01.08 bitrate=   5.4kbits/s speed=0.0596x    frame=  130 fps=6.8 q=36.0 size=       1kB time=00:00:01.14 bitrate=   5.2kbits/s speed=0.0594x    frame=  134 fps=6.6 q=35.0 size=       1kB time=00:00:01.22 bitrate=   4.8kbits/s speed=0.0599x    frame=  138 fps=6.4 q=35.0 size=       1kB time=00:00:01.30 bitrate=   4.5kbits/s speed=0.0605x    frame=  141 fps=6.4 q=35.0 size=       1kB time=00:00:01.36 bitrate=   4.3kbits/s speed=0.0614x    frame=  142 fps=6.2 q=35.0 size=       1kB time=00:00:01.38 bitrate=   4.3kbits/s speed=0.0606x    frame=  146 fps=6.1 q=35.0 size=       1kB time=00:00:01.46 bitrate=   4.0kbits/s speed=0.0613x    frame=  149 fps=6.1 q=35.0 size=       1kB time=00:00:01.52 bitrate=   3.9kbits/s speed=0.0623x    frame=  151 fps=6.0 q=35.0 size=       1kB time=00:00:01.56 bitrate=   3.8kbits/s speed=0.0623x    frame=  152 fps=5.9 q=35.0 size=       1kB time=00:00:01.58 bitrate=   3.7kbits/s speed=0.0612x    frame=  156 fps=5.9 q=35.0 size=       1kB time=00:00:01.66 bitrate=   3.5kbits/s speed=0.0627x    frame=  158 fps=5.7 q=34.0 size=       1kB time=00:00:01.70 bitrate=   3.5kbits/s speed=0.0615x    frame=  162 fps=5.7 q=34.0 size=       1kB time=00:00:01.78 bitrate=   3.3kbits/s speed=0.063x    frame=  164 fps=5.6 q=34.0 size=       1kB time=00:00:01.82 bitrate=   3.2kbits/s speed=0.0623x    frame=  165 fps=5.5 q=34.0 size=       1kB time=00:00:01.84 bitrate=   3.2kbits/s speed=0.0619x    frame=  168 fps=5.5 q=34.0 size=       1kB time=00:00:01.90 bitrate=   3.1kbits/s speed=0.0625x    frame=  170 fps=5.5 q=34.0 size=       1kB time=00:00:01.94 bitrate=   3.0kbits/s speed=0.0625x    frame=  173 fps=5.4 q=34.0 size=       1kB time=00:00:02.00 bitrate=   2.9kbits/s speed=0.0624x    frame=  176 fps=5.4 q=34.0 size=       1kB time=00:00:02.06 bitrate=   2.9kbits/s speed=0.0632x    frame=  177 fps=5.3 q=34.0 size=       1kB time=00:00:02.08 bitrate=   2.8kbits/s speed=0.0628x    frame=  179 fps=5.3 q=34.0 size=       1kB time=00:00:02.12 bitrate=   2.8kbits/s speed=0.0627x    frame=  180 fps=5.2 q=34.0 size=       1kB time=00:00:02.14 bitrate=   2.8kbits/s speed=0.0621x    frame=  184 fps=5.2 q=34.0 size=       1kB time=00:00:02.22 bitrate=   2.7kbits/s speed=0.0632x    frame=  186 fps=5.1 q=34.0 size=       1kB time=00:00:02.26 bitrate=   2.6kbits/s speed=0.0623x    frame=  189 fps=5.1 q=34.0 size=       1kB time=00:00:02.32 bitrate=   2.5kbits/s speed=0.0626x    frame=  192 fps=5.0 q=34.0 size=       1kB time=00:00:02.38 bitrate=   2.5kbits/s speed=0.0623x    frame=  196 fps=5.0 q=34.0 size=       1kB time=00:00:02.46 bitrate=   2.4kbits/s speed=0.0634x    frame=  198 fps=4.9 q=34.0 size=       1kB time=00:00:02.50 bitrate=   2.4kbits/s speed=0.0624x    frame=  202 fps=4.9 q=34.0 size=       1kB time=00:00:02.58 bitrate=   2.3kbits/s speed=0.063x    frame=  205 fps=4.9 q=34.0 size=       1kB time=00:00:02.64 bitrate=   2.2kbits/s speed=0.063x    frame=  207 fps=4.8 q=34.0 size=       1kB time=00:00:02.68 bitrate=   2.2kbits/s speed=0.0627x    frame=  211 fps=4.8 q=34.0 size=       1kB time=00:00:02.76 bitrate=   2.1kbits/s speed=0.0632x    frame=  213 fps=4.8 q=34.0 size=       1kB time=00:00:02.80 bitrate=   2.1kbits/s speed=0.0633x    frame=  214 fps=4.7 q=34.0 size=       1kB time=00:00:02.82 bitrate=   2.1kbits/s speed=0.0625x    frame=  218 fps=4.8 q=34.0 size=       1kB time=00:00:02.90 bitrate=   2.0kbits/s speed=0.0635x    frame=  220 fps=4.7 q=34.0 size=       1kB time=00:00:02.94 bitrate=   2.0kbits/s speed=0.0632x    frame=  222 fps=4.7 q=34.0 size=       1kB time=00:00:02.98 bitrate=   2.0kbits/s speed=0.0627x    frame=  226 fps=4.7 q=34.0 size=       1kB time=00:00:03.06 bitrate=   1.9kbits/s speed=0.0633x    frame=  229 fps=4.7 q=34.0 size=       1kB time=00:00:03.12 bitrate=   1.9kbits/s speed=0.0637x    frame=  230 fps=4.6 q=34.0 size=       1kB time=00:00:03.14 bitrate=   1.9kbits/s speed=0.0629x    frame=  232 fps=4.6 q=34.0 size=       1kB time=00:00:03.18 bitrate=   1.9kbits/s speed=0.063x    frame=  235 fps=4.6 q=34.0 size=       1kB time=00:00:03.24 bitrate=   1.8kbits/s speed=0.0634x    frame=  238 fps=4.6 q=34.0 size=       1kB time=00:00:03.30 bitrate=   1.8kbits/s speed=0.0632x    frame=  239 fps=4.5 q=34.0 size=       1kB time=00:00:03.32 bitrate=   1.8kbits/s speed=0.0629x    frame=  243 fps=4.5 q=34.0 size=       1kB time=00:00:03.40 bitrate=   1.7kbits/s speed=0.0636x    frame=  244 fps=4.5 q=34.0 size=       1kB time=00:00:03.42 bitrate=   1.7kbits/s speed=0.0634x    frame=  246 fps=4.5 q=34.0 size=       1kB time=00:00:03.46 bitrate=   1.7kbits/s speed=0.063x    frame=  249 fps=4.5 q=34.0 size=       1kB time=00:00:03.52 bitrate=   1.7kbits/s speed=0.0633x    frame=  252 fps=4.5 q=34.0 size=       1kB time=00:00:03.58 bitrate=   1.6kbits/s speed=0.0636x    frame=  253 fps=4.4 q=34.0 size=       1kB time=00:00:03.60 bitrate=   1.6kbits/s speed=0.0631x    frame=  254 fps=4.4 q=34.0 size=       1kB time=00:00:03.62 bitrate=   1.6kbits/s speed=0.0628x    frame=  259 fps=4.4 q=34.0 size=       1kB time=00:00:03.72 bitrate=   1.6kbits/s speed=0.0639x    frame=  260 fps=4.4 q=34.0 size=       1kB time=00:00:03.74 bitrate=   1.6kbits/s speed=0.0635x    frame=  261 fps=4.4 q=34.0 size=       1kB time=00:00:03.76 bitrate=   1.6kbits/s speed=0.0629x    frame=  263 fps=4.4 q=34.0 size=       1kB time=00:00:03.80 bitrate=   1.5kbits/s speed=0.063x    frame=  267 fps=4.4 q=34.0 size=       1kB time=00:00:03.88 bitrate=   1.5kbits/s speed=0.0637x    frame=  268 fps=4.4 q=34.0 size=       1kB time=00:00:03.90 bitrate=   1.5kbits/s speed=0.0634x    frame=  269 fps=4.3 q=34.0 size=       1kB time=00:00:03.92 bitrate=   1.5kbits/s speed=0.0631x    frame=  271 fps=4.3 q=34.0 size=       1kB time=00:00:03.96 bitrate=   1.5kbits/s speed=0.063x    frame=  274 fps=4.3 q=34.0 size=    5122kB time=00:00:04.02 bitrate=10435.2kbits/s speed=0.0634x    frame=  277 fps=4.3 q=34.0 size=    5122kB time=00:00:04.08 bitrate=10281.7kbits/s speed=0.0632x    frame=  279 fps=4.3 q=34.0 size=    5122kB time=00:00:04.12 bitrate=10182.0kbits/s speed=0.0632x    frame=  282 fps=4.3 q=34.0 size=    5122kB time=00:00:04.18 bitrate=10035.8kbits/s speed=0.0633x    frame=  284 fps=4.3 q=34.0 size=    5122kB time=00:00:04.22 bitrate=9940.7kbits/s speed=0.0633x    frame=  286 fps=4.3 q=34.0 size=    5122kB time=00:00:04.26 bitrate=9847.4kbits/s speed=0.0633x    frame=  289 fps=4.3 q=34.0 size=    5122kB time=00:00:04.32 bitrate=9710.7kbits/s speed=0.0637x    frame=  290 fps=4.2 q=33.0 size=    5122kB time=00:00:04.34 bitrate=9665.9kbits/s speed=0.0634x    frame=  293 fps=4.2 q=33.0 size=    5122kB time=00:00:04.40 bitrate=9534.2kbits/s speed=0.0634x    frame=  296 fps=4.2 q=33.0 size=    5122kB time=00:00:04.46 bitrate=9405.9kbits/s speed=0.0635x    frame=  299 fps=4.2 q=33.0 size=    5122kB time=00:00:04.52 bitrate=9281.1kbits/s speed=0.0636x    frame=  300 fps=4.2 q=33.0 size=    5122kB time=00:00:04.54 bitrate=9240.2kbits/s speed=0.0634x    frame=  303 fps=4.2 q=33.0 size=    5122kB time=00:00:04.60 bitrate=9119.7kbits/s speed=0.0636x    frame=  306 fps=4.2 q=33.0 size=    5122kB time=00:00:04.66 bitrate=9002.3kbits/s speed=0.0634x    frame=  309 fps=4.2 q=33.0 size=    5122kB time=00:00:04.72 bitrate=8887.9kbits/s speed=0.0637x    frame=  312 fps=4.1 q=33.0 size=    5122kB time=00:00:04.78 bitrate=8776.4kbits/s speed=0.0635x    frame=  315 fps=4.1 q=31.0 size=    5122kB time=00:00:04.84 bitrate=8667.6kbits/s speed=0.0636x    frame=  318 fps=4.1 q=34.0 size=    5122kB time=00:00:04.90 bitrate=8561.5kbits/s speed=0.0639x    frame=  320 fps=4.1 q=34.0 size=    6322kB time=00:00:04.94 bitrate=10481.8kbits/s speed=0.0639x    frame=  321 fps=4.1 q=34.0 size=    6322kB time=00:00:04.96 bitrate=10439.5kbits/s speed=0.0636x    frame=  326 fps=4.1 q=34.0 size=    6322kB time=00:00:05.06 bitrate=10233.3kbits/s speed=0.0643x    frame=  327 fps=4.1 q=35.0 size=    6322kB time=00:00:05.08 bitrate=10193.0kbits/s speed=0.0637x    frame=  331 fps=4.1 q=35.0 size=    6322kB time=00:00:05.16 bitrate=10035.0kbits/s speed=0.064x    frame=  333 fps=4.1 q=35.0 size=    6322kB time=00:00:05.20 bitrate=9957.8kbits/s speed=0.0638x    frame=  335 fps=4.1 q=35.0 size=    6322kB time=00:00:05.24 bitrate=9881.8kbits/s speed=0.0636x    frame=  339 fps=4.1 q=35.0 size=    6322kB time=00:00:05.32 bitrate=9733.2kbits/s speed=0.0636x    frame=  342 fps=4.1 q=35.0 size=    6322kB time=00:00:05.38 bitrate=9624.7kbits/s speed=0.064x    frame=  343 fps=4.1 q=35.0 size=    6322kB time=00:00:05.40 bitrate=9589.1kbits/s speed=0.0638x    frame=  345 fps=4.0 q=35.0 size=    6322kB time=00:00:05.44 bitrate=9518.6kbits/s speed=0.0638x    frame=  347 fps=4.0 q=35.0 size=    6322kB time=00:00:05.48 bitrate=9449.1kbits/s speed=0.0637x    frame=  350 fps=4.0 q=35.0 size=    6322kB time=00:00:05.54 bitrate=9346.8kbits/s speed=0.0636x    frame=  353 fps=4.0 q=35.0 size=    6322kB time=00:00:05.60 bitrate=9246.7kbits/s speed=0.0639x    frame=  354 fps=4.0 q=35.0 size=    6322kB time=00:00:05.62 bitrate=9213.8kbits/s speed=0.0635x    frame=  359 fps=4.0 q=35.0 size=    6322kB time=00:00:05.72 bitrate=9052.7kbits/s speed=0.0637x    frame=  360 fps=4.0 q=35.0 size=    6322kB time=00:00:05.74 bitrate=9021.2kbits/s speed=0.0635x    frame=  363 fps=4.0 q=35.0 size=    6322kB time=00:00:05.80 bitrate=8927.9kbits/s speed=0.0636x    frame=  366 fps=4.0 q=35.0 size=    6322kB time=00:00:05.86 bitrate=8836.5kbits/s speed=0.0637x    frame=  369 fps=4.0 q=35.0 size=    6322kB time=00:00:05.92 bitrate=8746.9kbits/s speed=0.0636x    frame=  372 fps=4.0 q=34.0 size=    6322kB time=00:00:05.98 bitrate=8659.2kbits/s speed=0.0638x    frame=  375 fps=3.9 q=34.0 size=    6322kB time=00:00:06.04 bitrate=8573.2kbits/s speed=0.0635x    frame=  379 fps=4.0 q=34.0 size=    6322kB time=00:00:06.12 bitrate=8461.1kbits/s speed=0.064x    frame=  381 fps=4.0 q=34.0 size=    6322kB time=00:00:06.16 bitrate=8406.2kbits/s speed=0.0639x    frame=  383 fps=3.9 q=34.0 size=    6322kB time=00:00:06.20 bitrate=8352.0kbits/s speed=0.0635x    frame=  387 fps=3.9 q=34.0 size=    6322kB time=00:00:06.28 bitrate=8245.6kbits/s speed=0.064x    frame=  389 fps=3.9 q=34.0 size=    6322kB time=00:00:06.32 bitrate=8193.4kbits/s speed=0.0638x    frame=  391 fps=3.9 q=34.0 size=    6322kB time=00:00:06.36 bitrate=8141.9kbits/s speed=0.0638x    frame=  394 fps=3.9 q=34.0 size=    6322kB time=00:00:06.42 bitrate=8065.8kbits/s speed=0.0641x    frame=  396 fps=3.9 q=34.0 size=    6322kB time=00:00:06.46 bitrate=8015.9kbits/s speed=0.0639x    frame=  398 fps=3.9 q=34.0 size=    6322kB time=00:00:06.50 bitrate=7966.5kbits/s speed=0.0638x    frame=  401 fps=3.9 q=34.0 size=    6322kB time=00:00:06.56 bitrate=7893.7kbits/s speed=0.0641x    frame=  403 fps=3.9 q=34.0 size=    6322kB time=00:00:06.60 bitrate=7845.9kbits/s speed=0.0638x    frame=  407 fps=3.9 q=34.0 size=    6322kB time=00:00:06.68 bitrate=7751.9kbits/s speed=0.0642x    frame=  409 fps=3.9 q=34.0 size=    6322kB time=00:00:06.72 bitrate=7705.8kbits/s speed=0.064x    frame=  411 fps=3.9 q=34.0 size=    6322kB time=00:00:06.76 bitrate=7660.2kbits/s speed=0.064x    frame=  413 fps=3.9 q=34.0 size=    6322kB time=00:00:06.80 bitrate=7615.1kbits/s speed=0.0641x    frame=  415 fps=3.9 q=34.0 size=    6322kB time=00:00:06.84 bitrate=7570.6kbits/s speed=0.0641x    frame=  417 fps=3.9 q=34.0 size=    6322kB time=00:00:06.88 bitrate=7526.6kbits/s speed=0.0641x    frame=  418 fps=3.9 q=34.0 size=    6322kB time=00:00:06.90 bitrate=7504.8kbits/s speed=0.0639x    frame=  421 fps=3.9 q=34.0 size=    6322kB time=00:00:06.96 bitrate=7440.1kbits/s speed=0.0642x    frame=  422 fps=3.9 q=34.0 size=    6322kB time=00:00:06.98 bitrate=7418.8kbits/s speed=0.0638x    frame=  426 fps=3.9 q=34.0 size=    6322kB time=00:00:07.06 bitrate=7334.7kbits/s speed=0.0641x    frame=  428 fps=3.9 q=34.0 size=    6322kB time=00:00:07.10 bitrate=7293.4kbits/s speed=0.0642x    frame=  429 fps=3.9 q=34.0 size=    6322kB time=00:00:07.12 bitrate=7272.9kbits/s speed=0.064x    frame=  431 fps=3.8 q=34.0 size=    6322kB time=00:00:07.16 bitrate=7232.3kbits/s speed=0.0639x    frame=  434 fps=3.9 q=34.0 size=    6322kB time=00:00:07.22 bitrate=7172.2kbits/s speed=0.0641x    frame=  437 fps=3.8 q=34.0 size=    6322kB time=00:00:07.28 bitrate=7113.1kbits/s speed=0.0641x    frame=  438 fps=3.8 q=34.0 size=    6322kB time=00:00:07.30 bitrate=7093.6kbits/s speed=0.0639x    frame=  443 fps=3.8 q=34.0 size=    6322kB time=00:00:07.40 bitrate=6997.8kbits/s speed=0.0643x    frame=  444 fps=3.8 q=34.0 size=    6322kB time=00:00:07.42 bitrate=6978.9kbits/s speed=0.0641x    frame=  446 fps=3.8 q=34.0 size=    6322kB time=00:00:07.46 bitrate=6941.5kbits/s speed=0.064x    frame=  449 fps=3.8 q=34.0 size=    6322kB time=00:00:07.52 bitrate=6886.1kbits/s speed=0.0641x    frame=  452 fps=3.8 q=34.0 size=    6322kB time=00:00:07.58 bitrate=6831.6kbits/s speed=0.064x    frame=  456 fps=3.8 q=34.0 size=    6322kB time=00:00:07.66 bitrate=6760.3kbits/s speed=0.0642x    frame=  458 fps=3.8 q=34.0 size=    6322kB time=00:00:07.70 bitrate=6725.2kbits/s speed=0.0642x    frame=  460 fps=3.8 q=34.0 size=    6322kB time=00:00:07.74 bitrate=6690.4kbits/s speed=0.0642x    frame=  463 fps=3.8 q=34.0 size=    6322kB time=00:00:07.80 bitrate=6639.0kbits/s speed=0.0641x    frame=  466 fps=3.8 q=34.0 size=    6322kB time=00:00:07.86 bitrate=6588.3kbits/s speed=0.0642x    frame=  468 fps=3.8 q=34.0 size=    6322kB time=00:00:07.90 bitrate=6554.9kbits/s speed=0.0642x    frame=  470 fps=3.8 q=34.0 size=    6322kB time=00:00:07.94 bitrate=6521.9kbits/s speed=0.0641x    frame=  472 fps=3.8 q=34.0 size=    6322kB time=00:00:07.98 bitrate=6489.2kbits/s speed=0.0641x    frame=  475 fps=3.8 q=34.0 size=    6322kB time=00:00:08.04 bitrate=6440.8kbits/s speed=0.0642x    frame=  477 fps=3.8 q=34.0 size=    6322kB time=00:00:08.08 bitrate=6408.9kbits/s speed=0.0642x    frame=  478 fps=3.8 q=34.0 size=    6322kB time=00:00:08.10 bitrate=6393.1kbits/s speed=0.0641x    frame=  480 fps=3.8 q=34.0 size=    6322kB time=00:00:08.14 bitrate=6361.7kbits/s speed=0.064x    frame=  483 fps=3.8 q=34.0 size=    6322kB time=00:00:08.20 bitrate=6315.1kbits/s speed=0.0642x    frame=  486 fps=3.8 q=34.0 size=    6322kB time=00:00:08.26 bitrate=6269.3kbits/s speed=0.0641x    frame=  488 fps=3.8 q=34.0 size=    6322kB time=00:00:08.30 bitrate=6239.1kbits/s speed=0.0641x    frame=  490 fps=3.8 q=34.0 size=    6322kB time=00:00:08.34 bitrate=6209.1kbits/s speed=0.0641x    frame=  492 fps=3.8 q=34.0 size=    6322kB time=00:00:08.38 bitrate=6179.5kbits/s speed=0.0641x    frame=  495 fps=3.8 q=34.0 size=    6322kB time=00:00:08.44 bitrate=6135.6kbits/s speed=0.0641x    frame=  498 fps=3.8 q=34.0 size=    6322kB time=00:00:08.50 bitrate=6092.3kbits/s speed=0.0642x    frame=  500 fps=3.7 q=34.0 size=    6322kB time=00:00:08.54 bitrate=6063.8kbits/s speed=0.0639x    frame=  500 fps=3.3 q=-1.0 Lsize=   13461kB time=00:00:09.94 bitrate=11092.7kbits/s speed=0.065x    
video:13456kB audio:0kB subtitle:0kB other streams:0kB global headers:0kB muxing overhead: 0.033579%
bench: utime=594.864s
bench: maxrss=2610032kB
[libx264 @ 0x4509120] frame I:3     Avg QP:29.50  size:544145
[libx264 @ 0x4509120] frame P:138   Avg QP:32.52  size: 50223
[libx264 @ 0x4509120] frame B:359   Avg QP:34.39  size: 14528
[libx264 @ 0x4509120] consecutive B-frames:  1.0%  2.0% 23.4% 73.6%
[libx264 @ 0x4509120] mb I  I16..4: 17.1% 77.3%  5.6%
[libx264 @ 0x4509120] mb P  I16..4:  0.1%  0.1%  0.0%  P16..4: 41.8%  2.2%  7.6%  0.0%  0.0%    skip:48.2%
[libx264 @ 0x4509120] mb B  I16..4:  0.0%  0.0%  0.0%  B16..8: 47.4%  0.2%  0.0%  direct: 0.1%  skip:52.3%  L0:48.8% L1:51.2% BI: 0.0%
[libx264 @ 0x4509120] final ratefactor: 26.17
[libx264 @ 0x4509120] 8x8 transform intra:75.3% inter:66.6%
[libx264 @ 0x4509120] direct mvs  spatial:99.2% temporal:0.8%
[libx264 @ 0x4509120] coded y,uvDC,uvAC intra: 93.2% 77.7% 59.4% inter: 3.4% 4.4% 0.0%
[libx264 @ 0x4509120] i16 v,h,dc,p: 18% 24% 29% 29%
[libx264 @ 0x4509120] i8 v,h,dc,ddl,ddr,vr,hd,vl,hu:  5%  7%  1% 14% 19% 14% 19%  9% 12%
[libx264 @ 0x4509120] i4 v,h,dc,ddl,ddr,vr,hd,vl,hu:  3%  4%  0% 14% 18% 15% 20% 11% 15%
[libx264 @ 0x4509120] i8c dc,h,v,p: 46% 27% 15% 12%
[libx264 @ 0x4509120] Weighted P-Frames: Y:0.7% UV:0.0%
[libx264 @ 0x4509120] ref P L0: 56.7% 18.5% 13.2%  2.9%  2.9%  2.3%  2.7%  0.9%  0.0%
[libx264 @ 0x4509120] ref B L0: 77.2%  8.3%  7.7%  2.3%  2.2%  1.7%  0.7%
[libx264 @ 0x4509120] ref B L1: 96.0%  4.0%
[libx264 @ 0x4509120] kb/s:11023.00
